<svg xmlns="http://www.w3.org/2000/svg" width="640" height="640"><path fill="#43867d" d="M329 5h5c3.82 3.82 4.53 9.9 6 15 .43 1.38.87 2.76 1.31 4.19 1.08 5.95 1.1 11.69-2.31 16.81-2.45 7.95-3.85 15.76-5 24h2v4c6.04 1.21 8.29-.46 13.56-3.25 8.29-4.22 17.09-7.31 25.88-10.31 5.4-1.92 9.84-4.12 14.56-7.44 1.19-.81 2.37-1.63 3.59-2.47 7.45-5.18 7.45-5.18 10.41-7.53v-2c.97-.27 1.94-.54 2.94-.81 1.01-.39 2.02-.79 3.06-1.19l1-3c2-.67 4-1.33 6-2 .68-.82 1.36-1.65 2.06-2.5 4.25-3.62 7.41-3.39 12.94-3.5 5.18 1.58 5.18 1.58 10.31 3.81l5.18 2.21c1.49.65 2.98 1.31 4.51 1.98 2.64 1.06 5.3 2.1 8 3 .66.49.66.49 4 3 2.32 1.03 4.65 2.04 7 3 4 2 4 2 6.31 3.88 3.07 2.42 6.26 4.23 9.69 6.12 4.34 2.4 8.16 4.87 12 8l5 3c3.08 2.31 6.12 4.67 9.16 7.04C516 70 516 70 520 71l2 4c2.98 2.22 5.47 3.82 9 5l2 4c3 2 3 2 7 4a103 103 0 0 1 4.69 4.44c.39.39.39.39 2.38 2.37C549 97 549 97 550 100l4 2c3.49 3.09 4.85 4.4 6 9l4 2c3 3 3 3 4 7l4 2c6.68 8.04 6.68 8.04 8 12l4 4c3 4 3 4 4 7 .66.82 1.32 1.65 2 2.5 2 2.5 2 2.5 3 5.5 1.32 1.68 2.66 3.34 4 5 2.61 4.34 3.45 6.24 4 11l3 1c1.79 2.84 1.79 2.84 3.62 6.38.62 1.16 1.23 2.32 1.86 3.52 1.98 4.03 2.83 7.68 3.52 12.1h2c5.37 11.65 9.6 23.46 13.44 35.69.43 1.38.87 2.76 1.32 4.19 5.26 17.07 5.26 17.07 3.24 21.12.94 2.69 1.94 5.36 3 8 1 3 1 3 1 5l2 2c.2 3.4.09 6.49-.51 9.84-.5 3.21-.6 6.19-.59 9.43.01 1.16.01 2.31.01 3.5l.03 3.61A2670 2670 0 0 0 638 307c-3.86-.33-3.86-.33-8-1-3.74-4.7-5.48-10.63-7.56-16.23-2.22-5.8-4.66-11.5-7.08-17.22C614 269 614 269 614 266l-3-3c-1.84-3.23-3.63-6.47-5.38-9.75-3.21-6.03-6.6-11.71-10.62-17.25l-1-3-2.44-2.38C589 228 589 228 587 223c-4-4-4-4-6-5l-1-4c-2.28-2.06-4.62-4.06-7-6-4-4-4-4-6.44-7.12C564 198 564 198 559 196c-.29-.44-.29-.44-1.75-2.69-3.46-5.1-8.35-9.34-14.25-11.31l-4-4c-1.8-1.28-3.64-2.51-5.5-3.69-.94-.6-1.88-1.2-2.84-1.82C528 171 528 171 524 170c-.75-.61-1.51-1.22-2.29-1.85-3.21-2.54-6.38-3.93-10.15-5.53-1.42-.6-2.85-1.2-4.31-1.82-.7-.3-.7-.3-4.25-1.8-1.16-.53-2.33-1.06-3.53-1.61-47.38-21.45-105.61-18.19-153.49-.54C305 173 305 173 297 181c-.87.13-1.75.27-2.64.4-4.59.82-7.98 2.9-12.05 5.16-29.08 15.68-29.08 15.68-44.31 16.44-5-2-5-2-9-5v-3l-1-3c.3-6.69 1.81-11.16 5-17 1.35-2.99 2.68-5.99 4-9-3 3-3 3-5 7l-2 1-2 4-2 1-2 5-4 4-1 3c-1.5 2.7-3.03 5.38-4.56 8.06-17.68 31.67-23.75 60.12-21.94 96.13.32 6.28.56 12.52.5 18.81h2c.33 1.53.66 3.05 1 4.62 7.36 33.02 21.25 62.25 38.84 91.03 8.71 14.79 8.71 14.79 7.16 24.35l-2 4h-2v2c-15.79 4.33-29.62-1.79-44-8l-5-2c3.88 3.97 7.78 7.92 11.69 11.88 1.08 1.1 2.16 2.21 3.28 3.35 15.41 15.55 31.07 28.14 53.03 31.77 1.78.3 3.56.6 5.39.9 29.35 4.35 60.34 3.79 89.61-.9 1.08-.17 2.16-.34 3.28-.52 14.46-2.36 28.7-5.52 42.9-9.16 10.95-2.76 19.29-4.66 29.82.68 3.25 4.34 3.83 5.71 4 11-1.78 9.02-5.36 17.06-10 25l-2 1a98 98 0 0 0-2 6c.78-.97 1.57-1.94 2.38-2.94C423 505 423 505 425 504l2-4a724 724 0 0 1 4.69-7.5c4.25-6.76 8.31-13.59 12.31-20.5l2-3c1.84-3.68 2.94-7.05 4-11h2v-4l1-2v-2l2-1c-.05-.96-.1-1.91-.14-2.9.17-4.84 1.23-9.03 2.45-13.72 7.96-32.68 8.34-65.57 2.63-98.6-.86-5.26-1.43-10.48-1.94-15.78-1-4-1-4-3-7-.36-2-.69-4-1-6l-1-1v-3c-1-3-1-3-3-6-4-9.18-4-9.18-4-15h-2c-.63-1.15-1.26-2.3-1.91-3.48-4.65-8.45-9.38-16.8-14.59-24.92-1.5-2.6-1.5-2.6-2.5-6.6l-3-1-1-5-3-1c-2.01-2.4-2.01-2.4-4.12-5.38-.71-.97-1.41-1.95-2.14-2.96C410 227 410 227 409 224c-.74-.68-1.49-1.36-2.25-2.06-4.55-4.86-7.75-10.12-7.75-16.88 1.25-3.81 3.45-5.54 6.31-8.25 11.25-5.52 24.55-.48 35.69 3.19 5.39 1.88 10.7 3.89 16 6 .51.19.51.19 3.1 1.18 7.53 2.95 14.43 6.8 21.43 10.83 3.43 1.97 6.71 3.74 10.47 4.99v3l5 2c2.36 1.71 4.67 3.49 6.94 5.31 1.18.95 2.37 1.89 3.59 2.87q3.36 2.73 6.66 5.55C517 244 517 244 521 246l2 4c2.25 1.97 4.32 3.66 7 5l1 4 4 2 1 3 3 1 1 4 3 1 1 4 3 1c2.32 3.13 4.49 6.25 6.62 9.5.63.94 1.25 1.89 1.9 2.86 7.17 11.02 13.38 22.51 18.48 34.64.47 1.06.94 2.13 1.43 3.23 9.31 21.2 9.31 21.2 8.57 30.77h2c6.31 23.78 8.63 47.46 9 72 5.58-.4 8.29-1.51 12.31-5.38.84-.79 1.69-1.58 2.55-2.39 2.77-2.88 4.35-5.65 6.14-9.23 1.29-2.38 2.58-4.75 3.88-7.12 2.43-4.52 4.63-8.93 6.37-13.76.29-.68.29-.68 1.75-4.12l4-1c1.52 14.78 1.52 14.78-1 21h-2c.04.46.04.46.22 2.79-.29 5.55-1.98 10.43-3.78 15.65-.36 1.05-.72 2.11-1.09 3.19-2.99 8.67-6.45 17.07-10.35 25.37h-2l-1 6h-2c-.1.93-.21 1.86-.31 2.81C608 465 608 465 605 468l-1 5-3 1q-1.575 4.47-3 9l-2 2-1 3c-1.9 3.01-3.84 5.98-5.81 8.94l-3.21 4.84c-2.71 3.84-5.67 6.91-8.98 10.22l-2 5-4 2-1 4-4 2-2 5-5 3-2 5-3 3h-2l-2 4a138 138 0 0 1-5.38 5.69c-.95.97-1.91 1.94-2.89 2.95C539 556 539 556 535 557c-2.01 2.24-3.65 4.31-5 7l-4 1-1 3-4 1-1 3-4 1v2l-4 1c-2.27 1.39-4.5 2.86-6.69 4.38-.58.39-.58.39-3.51 2.39C499 585 499 585 498 588l-5 1a224 224 0 0 0-8.38 4.81C450.61 613.73 415.5 626.51 377 635c-1.36.34-2.73.69-4.13 1.04-8.17 1.34-16.2 1.33-24.46 1.37l-5.47.03c-3.82.02-7.65.03-11.47.04-5.76.02-11.52.08-17.28.14-20.94.12-39.98-1.11-60.19-6.62q-3.99-.915-7.98-1.8c-17.14-4.1-33.85-9.23-49.98-16.41C192 611 192 611 188 610c-3.53-1.85-7.02-3.75-10.5-5.69-11.89-6.58-11.89-6.58-18-9.5-5.79-2.82-11.1-6.3-16.47-9.86C140 583 140 583 136 581c-.74-.8-1.49-1.61-2.25-2.44C131 576 131 576 126.94 574.5c-4.26-1.62-5.36-2.91-7.94-6.5l-4-2c-.16-.5-.16-.5-1-3l-4-1c-1.33-2-2.67-4-4-6l-4-1-3-4c-2.33-2.01-4.66-4.01-7-6-7.79-7.17-7.79-7.17-9-12l-4-2-2-5c-.82-.5-.82-.5-5-3-2.91-3.15-3.94-4.77-5-9l-3-1c-3-4-3-4-4-7-1.3-1.69-2.64-3.35-4-5-5.86-7.59-5.86-7.59-7-11-.66-.78-1.32-1.57-2-2.38-2-2.62-2-2.62-3-7.62h-2c-2.4-4.6-4.79-9.21-7.19-13.81-.67-1.29-1.34-2.58-2.04-3.91C19.67 437.04 10.07 410.26 6 382l1-2c-.28-2.01-.61-4.01-1-6H4c0-5 0-5 1-6-.62-3.67-1.29-7.34-2-11H1c-.05-10.47-.09-20.93-.11-31.4-.01-3.56-.02-7.12-.04-10.68-.03-5.12-.04-10.23-.05-15.34l-.03-4.84v-4.49c0-1.31-.01-2.61-.01-3.96C1 283 1 283 3 279v-2c.17-.66.17-.66 1-4v-1c1-4 1-4 2-6 .74-3.59 1.05-7.01 1.25-10.69.71-8.65 3.41-16.98 5.75-25.31h2v-6c2.76-9.23 6.31-18.11 10-27 .61-1.47 1.21-2.93 1.84-4.44.61-1.44 1.22-2.89 1.85-4.37.28-.67.28-.67 1.7-4.02C32 181 32 181 35 179l1-5c1.28-2.36 2.6-4.7 4-7h2l1-5c4.49-8.74 4.49-8.74 7-10l2-5c5.94-9.47 5.94-9.47 9-11l1-2c2-4 2-4 6-6 .16-.5.16-.5 1-3 2-4 2-4 5-6l2-4 3-2 2-4 3-1.94c3-2.06 3-2.06 5-7.06l4-1v-2l5-3c7.55-7.1 7.55-7.1 10-12 3.43-3.21 5.4-4.85 10-6 .16-.5.16-.5 1-3l4-1c.16-.5.16-.5 1-3l4-1c.41-.35.41-.35 2.5-2.12 3.92-3.22 8.02-5.56 12.42-8.06 2.83-1.67 5.48-3.46 8.14-5.38 5.08-3.65 10.41-6.53 15.94-9.44v-2c.85-.09 1.69-.18 2.57-.27 3.99-.85 6.82-2.4 10.37-4.42 7.5-4.1 15.05-7.36 23.06-10.31 1.5-.55 3-1.11 4.55-1.68C242.84 11.63 291.49-4.53 329 5m10 19 1 3Zm1 4v5h1v-5zm-4 14 1 3Zm-3 14 1 4Zm239 70 2 2v-2zM53 147l1 2Zm192 8-1 2h2zM27 195l1 2Zm-3 7 1 2Zm-1 3 1 2Zm377 0 1 3Zm1 4 1 2Zm219 0 1 2Zm-599 1 1 2Zm600 2 1 2Zm-602 3 1 2Zm183 2 1 2Zm-184 1 1 2Zm606 2 1 2Zm-424 2 1 2Zm-3 8 1 2Zm-1 3 1 2Zm-183 1 1 2Zm182 2 1 2Zm-1 3 1 2Zm436 0 1 2Zm-437 3 1 2Zm438 2 1 3Zm-439 2 1 3Zm413 2 1 2ZM9 250l1 2Zm182 0v7h1v-7zM8 255l1 3Zm182 3c-1.07 5.37-.65 9.59 0 15h1v-15zm447 11-1 5h2v-5zm-448 5v9h1v-9zM2 284v8l2-2c-.38-3.12-.38-3.12-1-6zm188 0v13h1v-13zm258 1 1 2Zm1 3v2l2-1zm177 6 1 2Zm-435 4v7h1v-7zm264 8 1 2Zm-261 13 1 4Zm265 0 1 3Zm-264 4 1 3Zm265 0 1 4Zm-264 4 1 4Zm265 3 1 2Zm-264 2 1 4Zm265 3 1 2Zm-264 1 1 2Zm1 3 1 2Zm264 1 1 4Zm117 3 1 2Zm-379 2 1 2Zm380 1 1 2Zm-117 1v5h1v-5zm-262 1 1 2Zm380 1 1 2Zm-117 6v16h1v-16zm-259 4 1 2Zm380 5 1 2Zm1 5 1 2Zm-121 5v5h1v-5zm122 0 1 3Zm1 6 1 4Zm-124 2v16h1v-16zm125 3v7h1v-7zM8 386l1 3Zm1 5 1 2Zm582 2v5h1v-5zm35 1 1 2Zm5 1 1 3Zm-167 6v7h1v-7zm128 0v28h1v-28zm-129 8 1 4Zm164 0 1 3Zm-613 2 1 2Zm1 3 1 2Zm447 2 1 3Zm162 5 1 2Zm-163 1 1 2Zm-443 1 1 3Zm222 1v9h1v-9zm-221 3 1 2Zm441 0 1 2Zm-1 4 1 2Zm161 1 1 2Zm-598 2 1 2Zm1 3 1 2Zm433 5 1 2Zm-427 9 1 2Zm9 18 1 2Zm392 7 1 3Zm-1 4 1 3Zm-13 32 1 2Zm-3 2v3l2-2zm-3 3 1 2 1-2zm-6 9c-.5.66-.5.66-3 4h3l2-3z"/><path fill="#14534d" d="M304.136 5.771c14.97-.99 14.97-.99 21.8 3.42 1.01 1.25 2.02 2.51 3.06 3.81.93.86 1.86 1.73 2.82 2.62 5.06 5.5 6 10.11 6.18 17.38-1.76 6-6.21 9.2-11 13h-2v2c-2.43 1.55-4.88 3.1-7.34 4.62-12.57 8.16-24.43 17.47-35.66 27.38-.46.41-.46.41-2.8 2.47-3.68 3.27-7.24 6.58-10.7 10.09-2.5 2.44-2.5 2.44-4.5 2.44l-2 4c-2.33 2.33-4.66 4.67-7 7-3.1 3.59-6.05 7.28-9 11-.4.51-.4.51-2.44 3.07-40.27 51.37-61.72 117.75-54.43 183.05 5.74 40.71 23.87 76.63 44.49 111.73 6.18 10.76 6.18 10.76 5.38 17.15-2.3 4.37-3.51 5.76-8 8-26.04 2.2-53.81-18.17-73.06-33.75-1.66-1.4-3.3-2.82-4.94-4.25-.85-.75-1.71-1.5-2.6-2.27-5.33-4.73-10.4-9.65-15.4-14.73-.77-.76-1.55-1.51-2.35-2.29-11.02-11.28-19.54-24.26-27.65-37.71-.49-.79-.49-.79-2.98-4.79-18.7-31.31-27.52-68.59-29.38-104.72-.45-8.21-.45-8.21-2.64-11.49-12.47 3.12-21.03 20.53-27.5 31-1.52 2.65-3.02 5.32-4.5 8-.5.91-1.01 1.82-1.53 2.76-8.17 14.89-15.12 30.01-21.2 45.88-.51 1.29-1.01 2.58-1.52 3.92-.44 1.14-.87 2.29-1.32 3.48-1.43 2.96-1.43 2.96-5.43 6.96h-3c-.32-18.37-.09-35.86 3-54 .43-4 .74-7.99 1-12h-1c.46-10.4 3.2-20.01 6-30h2v-6c2.76-9.23 6.32-18.11 10-27 .61-1.47 1.22-2.93 1.84-4.44.61-1.45 1.22-2.89 1.85-4.37.28-.67.28-.67 1.7-4.02 1.61-3.17 1.61-3.17 4.61-5.17l1-5c1.28-2.37 2.61-4.71 4-7h2l1-5c4.49-8.74 4.49-8.74 7-10l2-5c5.94-9.47 5.94-9.47 9-11l1-2c2-4 2-4 6-6 .17-.5.17-.5 1-3 2-4 2-4 5-6l2-4 3-2 2-4 3-1.94c3-2.06 3-2.06 5-7.06l4-1v-2l5-3c7.55-7.1 7.55-7.1 10-12 3.43-3.21 5.4-4.85 10-6 .17-.5.17-.5 1-3l4-1c.17-.5.17-.5 1-3l4-1c.42-.35.42-.35 2.5-2.13 3.92-3.22 8.02-5.55 12.42-8.04 2.86-1.7 5.48-3.53 8.15-5.52 5.19-3.49 10.05-5.24 15.93-7.31 3.35-1.98 6.68-3.98 10-6 3.32-1.37 6.66-2.71 10-4l5-3c2.03-.8 4.07-1.55 6.13-2.25 5.73-1.99 11.4-4.09 17.06-6.25 9.48-3.49 19-6.15 28.81-8.5.99-.25 1.97-.49 2.99-.75 18.96-4.73 37.68-7.06 57.15-8.48m-251.14 141.23 1 2Zm-26 48 1 2Zm-3 7 1 2Zm-1 3 1 2Zm-2 5 1 2Zm-2 5 1 2Zm-1 3 1 2Zm-5 16 1 2Zm-4 16 1 2Zm-1 5 1 3Z"/><path fill="#16615a" d="M431 199c3.69 1.06 7.37 2.13 11.06 3.19 9.92 2.96 18.87 6.76 27.94 11.81 1.33.71 2.67 1.42 4.04 2.16 9.16 4.97 17.65 10.56 25.96 16.84.87.66 1.74 1.31 2.64 1.99 27.2 21.16 48.64 47.9 63.36 79.01.57 1.12 1.14 2.24 1.73 3.39C585.53 353.11 590.3 392.62 591 432c4.1-.48 8-1 12-2v-2c1.13-.8 2.27-1.61 3.44-2.44 9.52-7.43 18.79-18.84 21.25-30.95.1-.86.2-1.72.31-2.61l3-1 2 2c-.47 9.2-.47 9.2-3 13-1 3-1 3-1.37 6.59-2.01 13.99-8.77 27.65-14.63 40.41h-2l-1 6h-2c-.1.93-.21 1.86-.31 2.81C608 465 608 465 605 468l-1 5-3 1q-1.575 4.47-3 9l-2 2-1 3c-1.9 3.01-3.84 5.98-5.81 8.94-1.06 1.59-2.12 3.19-3.21 4.84-2.71 3.84-5.67 6.91-8.98 10.22l-2 5-4 2-1 4-4 2-2 5-5 3-2 5-3 3h-2l-2 4a138 138 0 0 1-5.38 5.69c-.95.97-1.91 1.94-2.89 2.95C539 556 539 556 535 557c-2.01 2.24-3.65 4.31-5 7l-4 1-1 3-4 1-1 3-4 1v2l-4 1c-2.27 1.39-4.5 2.86-6.69 4.38l-3.51 2.39C499 585 499 585 498 588l-5 1a224 224 0 0 0-8.38 4.81C450.61 613.73 415.5 626.51 377 635c-1.59.37-3.19.74-4.83 1.12-5.91 1.01-11.5 1.14-17.48 1.07h-3.21c-4.67-.03-8.89-.27-13.48-1.19v-2l-5-2c-5.79-7.24-6.32-11.73-6-21 4.18-4.18 11.87-4.35 17.5-5.59 5.42-1.39 10.35-3.23 15.5-5.41 10-4 10-4 14.75-5.75C409 579.57 437.17 553.84 456 522c.61-1.01 1.22-2.02 1.84-3.07 6.89-11.58 12.1-22.86 15.91-35.81.77-2.53 1.53-5.07 2.3-7.61.33-1.11.65-2.22.99-3.36.63-2.07 1.3-4.13 2.02-6.17.96-3.06 1.52-5.96 1.98-9.13.16-1.16.33-2.32.51-3.52.17-1.22.34-2.45.51-3.71.18-1.25.36-2.51.54-3.8 6.76-49.5-1.84-98.64-23.1-143.63-.45-.96-.9-1.91-1.37-2.9-2.24-4.66-4.6-9.17-7.29-13.6-2.19-3.62-4.07-7.11-5.84-10.94-9.27-18.8-22.05-36.04-34.5-52.81-4.59-6.31-7.5-10.94-7.5-18.94 6.48-10.56 18.12-7.41 28-4m200 196 1 3Zm-4 14 1 3Zm-3 12 1 2Zm-4 11 1 2Z"/><path fill="#125d58" d="M435 26c3.46 1.36 6.86 2.8 10.24 4.33 2.8 1.25 5.65 2.39 8.51 3.49 5.74 2.38 11 5.21 16.37 8.3 1.01.58 2.01 1.15 3.05 1.74 23.24 13.37 44.92 28.33 64.36 46.88 2.35 2.21 4.75 4.35 7.2 6.45 3.85 3.31 6.97 6.95 10.27 10.81 1.58 1.71 3.16 3.42 4.75 5.12C606 163.93 606 163.93 606 185l6 1 1 6h2c5.37 11.65 9.6 23.46 13.44 35.69.43 1.38.87 2.76 1.32 4.19 5.26 17.07 5.26 17.07 3.24 21.12.94 2.69 1.94 5.36 3 8 1 3 1 3 1 5l2 2c.2 3.4.09 6.49-.51 9.84-.5 3.21-.6 6.19-.59 9.43.01 1.16.01 2.31.01 3.5l.03 3.61A2670 2670 0 0 0 638 307c-3.86-.33-3.86-.33-8-1-3.74-4.7-5.48-10.63-7.56-16.23-2.22-5.8-4.66-11.5-7.08-17.22C614 269 614 269 614 266l-3-3c-1.84-3.23-3.63-6.47-5.38-9.75-3.21-6.03-6.6-11.71-10.62-17.25l-1-3-2.44-2.38C589 228 589 228 587 223c-4-4-4-4-6-5l-1-4c-2.28-2.06-4.62-4.06-7-6-4-4-4-4-6.44-7.12C564 198 564 198 559 196c-.29-.44-.29-.44-1.75-2.69-3.46-5.1-8.35-9.34-14.25-11.31l-4-4c-1.8-1.28-3.64-2.51-5.5-3.69-.94-.6-1.88-1.2-2.84-1.82C528 171 528 171 524 170c-.75-.61-1.51-1.22-2.29-1.85-3.21-2.54-6.38-3.93-10.15-5.53-1.42-.6-2.85-1.2-4.31-1.82-.7-.3-.7-.3-4.25-1.8-1.16-.53-2.33-1.06-3.53-1.61-47.38-21.45-105.61-18.19-153.49-.54C305 173 305 173 297 181c-.44.07-.44.07-2.69.44-4.26.72-7.46 2.61-11.31 4.56q-4.5 1.515-9 3c-1.3.58-2.6 1.16-3.94 1.75-24.93 11.08-24.93 11.08-35.06 10.25-2.56-1.94-2.56-1.94-4-5-1.04-14.45 8.2-26.84 15.8-38.51 2.2-3.49 2.2-3.49 3.68-6.54 5.79-11.28 15.8-20.88 24.52-29.95 1.2-1.25 2.4-2.51 3.64-3.8 7.57-7.75 15.28-15.2 24.36-21.2h2v-2c2.84-2.05 5.75-4.02 8.69-5.94 1.61-1.06 3.22-2.12 4.88-3.21 7.27-4.68 14.21-8.24 22.43-10.85v-2l3.44-.88c1.17-.37 2.35-.74 3.56-1.12.16-.33.16-.33 1-2l9-3c1.53-.78 3.05-1.57 4.62-2.38 4.31-2.1 7.9-3.39 12.44-4.68C384.68 54.84 392 49.02 400 43c5.63-4.05 11.3-8.04 17-12 .99-.7 1.99-1.4 3.01-2.12 5.5-3.65 8.62-4.75 14.99-2.88m185 183 1 2Zm1 3 1 2Zm3 8 1 2Zm6 19 1 2Zm1 5 1 3Zm-26 4 1 2Zm32 21-1 5h2v-5zm-11 25 1 2Z"/><path fill="#d2e8e2" d="M441 200c5.39 1.88 10.7 3.89 16 6 1.02.39 2.05.78 3.1 1.18 7.53 2.95 14.43 6.8 21.43 10.83 3.43 1.97 6.71 3.74 10.47 4.99v3l5 2c2.36 1.71 4.67 3.49 6.94 5.31 1.18.95 2.37 1.89 3.59 2.87q3.36 2.73 6.66 5.55C517 244 517 244 521 246l2 4c2.25 1.97 4.32 3.66 7 5l1 4 4 2 1 3 3 1 1 4 3 1 1 4 3 1c2.32 3.13 4.49 6.25 6.62 9.5.63.94 1.25 1.89 1.9 2.86 7.17 11.02 13.38 22.51 18.48 34.64.24.53.24.53 1.43 3.23 9.31 21.2 9.31 21.2 8.57 30.77h2c6.31 23.78 8.63 47.46 9 72 5.58-.4 8.29-1.51 12.31-5.38.84-.79 1.69-1.58 2.55-2.39 2.77-2.88 4.35-5.65 6.14-9.23 1.29-2.38 2.58-4.75 3.88-7.12 2.43-4.52 4.63-8.93 6.37-13.76.58-1.36 1.15-2.72 1.75-4.12l4-1v8l-4-1v6c-5 11.58-12.88 25.15-25 30v2c-4.47 2.1-6.95 3-12 3-2.42-2.42-1.18-7.38-1.24-10.69-.67-37.94-7.57-76.61-25.76-110.31-.74-1.57-1.49-3.13-2.25-4.75-7.79-14.87-16.81-30.31-28.75-42.25v-2l-3-1c-2.36-2.64-4.69-5.31-7-8-5.94-6.23-12.24-11.69-19-17-.96-.76-1.92-1.51-2.91-2.29-12.23-9.38-25.41-16.68-39.09-23.71-1.16-.65-2.32-1.3-3.52-1.97-6.59-2.98-13.46-4.78-20.42-6.72-2.82-.79-5.64-1.59-8.46-2.38-1.24-.35-2.49-.7-3.77-1.05C423 198 423 198 422 197c-6.15-.33-10.79-.52-16 3-2 3-2 3-2 7.12 1.78 8.7 8.08 15.44 13.25 22.5 12.96 17.92 24.28 36.46 34.5 56.08 1.56 2.97 3.14 5.93 4.75 8.88 6.06 11.18 11.12 22.48 15.5 34.42.46 1.25.92 2.51 1.39 3.8 6.51 19.25 10.12 39.98 11.61 60.2.11 1.27.22 2.54.33 3.84 1.62 19.88-.34 39.43-3.27 59.1-.16 1.08-.31 2.16-.48 3.28-.92 5.95-2.33 11.21-4.58 16.78-.66 1.95-1.3 3.9-1.94 5.86-.34 1.03-.67 2.06-1.02 3.13-.7 2.14-1.39 4.29-2.08 6.43-1.62 4.94-3.27 9.09-5.96 13.58l-2 5c-4.96 8.88-10.13 17.69-16 26-.32.46-.32.46-1.95 2.79-16.23 22.22-37.13 37.98-61.05 51.21-1.56.89-3.12 1.77-4.72 2.69-4.95 2.67-9.98 4.44-15.28 6.31-1.53.68-3.05 1.36-4.62 2.06-8.98 3.98-18.09 6.05-27.66 8.07C329 610 329 610 328 611c-.62 8.28.07 12.98 5 20 .82.5.82.5 5 3v2h5v1c-8.17.15-16.35.26-24.52.33q-4.155.045-8.31.12c-18.52.35-35.36-1.13-53.33-5.73-3.59-.91-7.2-1.72-10.82-2.52-17.14-4.1-33.85-9.23-49.98-16.41C192 611 192 611 188 610c-3.53-1.85-7.02-3.75-10.5-5.69-11.89-6.58-11.89-6.58-18-9.5-5.79-2.82-11.1-6.3-16.47-9.86C140 583 140 583 136 581c4-1 4-1 7.83 1.17 1.46.99 2.92 1.99 4.42 3.02 9.56 6.49 17.94 10.43 29.13 13 1.07.26 2.14.52 3.24.78 6.47 1.53 12.76 2.41 19.38 3.03 1.48.35 2.96.69 4.48 1.05 7.95 1.37 15.78 1.25 23.83 1.2.85 0 .85 0 5.16-.02 54.37-.47 106.75-19.87 147.53-56.23.87-.73 1.74-1.47 2.63-2.23 5.93-5.1 10.85-10.73 15.73-16.85 3.81-4.21 7.12-6.54 12.64-7.92-.4-.87-.8-1.73-1.21-2.62-.79-3.38-.79-3.38.52-6.32.7-1.01 1.4-2.02 2.13-3.06 14.59-22.07 14.59-22.07 13.56-35-3-5-3-5-7-7-5.92-.38-11.12.48-16.88 1.81-1.48.34-2.96.68-4.49 1.02-3.06.77-6.1 1.63-9.11 2.58-7.59 2.18-15.27 3.66-23.02 5.15-.76.15-.76.15-4.61.92-18.99 3.7-37.65 4.99-56.95 5.02-.58 0-.58 0-3.48.01-26.23.01-52.05-2.74-77.46-9.51v-1c12.26.2 24.1 2.03 36.14 4.18 29.9 5.3 61.91 4.62 91.86-.18 1.08-.17 2.16-.34 3.28-.52 14.46-2.36 28.7-5.52 42.9-9.16 10.95-2.76 19.29-4.66 29.82.68 3.25 4.34 3.83 5.71 4 11-1.78 9.02-5.36 17.06-10 25l-2 1a98 98 0 0 0-2 6c.78-.97 1.57-1.94 2.38-2.94C423 505 423 505 425 504l2-4a724 724 0 0 1 4.69-7.5c4.25-6.76 8.31-13.59 12.31-20.5l2-3c1.84-3.68 2.94-7.05 4-11h2v-4l1-2v-2l2-1c-.05-.96-.1-1.91-.14-2.9.17-4.84 1.23-9.03 2.45-13.72 7.96-32.68 8.34-65.57 2.63-98.6-.86-5.26-1.43-10.48-1.94-15.78-1-4-1-4-3-7-.36-2-.69-4-1-6l-1-1v-3c-1-3-1-3-3-6-4-9.18-4-9.18-4-15h-2c-.63-1.15-1.26-2.3-1.91-3.48-4.65-8.45-9.38-16.8-14.59-24.92-1.5-2.6-1.5-2.6-2.5-6.6l-3-1-1-5-3-1c-2.01-2.4-2.01-2.4-4.12-5.38-.71-.97-1.41-1.95-2.14-2.96C410 227 410 227 409 224c-.74-.68-1.49-1.36-2.25-2.06-4.55-4.86-7.75-10.12-7.75-16.88 1.25-3.81 3.45-5.54 6.31-8.25 11.25-5.52 24.55-.48 35.69 3.19m-41 5 1 3Zm1 4 1 2Zm47 76 1 2Zm1 3v2l2-1zm6 18 1 2Zm4 13 1 3Zm1 4 1 4Zm1 7 1 2Zm1 5 1 2Zm1 5 1 4Zm117 3 1 2Zm1 3 1 2Zm-117 1v5h1v-5zm118 2 1 2Zm-117 6v16h1v-16zm121 9 1 2Zm1 5 1 2Zm-121 5v5h1v-5zm122 0 1 3Zm1 6 1 4Zm-124 2v16h1v-16zm125 3v7h1v-7zm1 8v5h1v-5zm35 1 1 2Zm-162 7v7h1v-7zm128 0v28h1v-28zm-129 8 1 4Zm-1 7 1 3Zm-1 6 1 2Zm-1 5 1 2Zm-1 4 1 2Zm-3 11 1 2Zm-26 34 1 3Zm-1 4 1 3Zm-13 32 1 2Zm-3 2v3l2-2zm-9 12c-.5.66-.5.66-3 4h3l2-3z"/><path fill="#d3e8e2" d="M329 5h5c3.82 3.82 4.53 9.9 6 15 .43 1.38.87 2.76 1.31 4.19 1.08 5.95 1.1 11.69-2.31 16.81-2.45 7.95-3.85 15.76-5 24h2v4c6.04 1.21 8.29-.46 13.56-3.25 8.29-4.22 17.09-7.31 25.88-10.31 5.4-1.92 9.84-4.12 14.56-7.44.59-.41.59-.41 3.59-2.47 7.45-5.18 7.45-5.18 10.41-7.53v-2c.97-.27 1.94-.54 2.94-.81 1.01-.39 2.02-.79 3.06-1.19l1-3c2-.67 4-1.33 6-2 .68-.82 1.36-1.65 2.06-2.5 4.25-3.62 7.41-3.39 12.94-3.5 5.18 1.58 5.18 1.58 10.31 3.81l5.18 2.21c1.49.65 2.98 1.31 4.51 1.98 2.64 1.06 5.3 2.1 8 3 .66.49.66.49 4 3 2.32 1.03 4.65 2.04 7 3 4 2 4 2 6.31 3.88 3.07 2.42 6.26 4.23 9.69 6.12 4.34 2.4 8.16 4.87 12 8l5 3c3.08 2.31 6.12 4.67 9.16 7.04C516 70 516 70 520 71l2 4c2.98 2.22 5.47 3.82 9 5l2 4c3 2 3 2 7 4a103 103 0 0 1 4.69 4.44c.79.78 1.57 1.56 2.38 2.37C549 97 549 97 550 100l4 2c3.49 3.09 4.85 4.4 6 9l4 2c3 3 3 3 4 7l4 2c6.68 8.04 6.68 8.04 8 12l4 4c3 4 3 4 4 7 .66.82 1.32 1.65 2 2.5 2 2.5 2 2.5 3 5.5 1.32 1.68 2.66 3.34 4 5 2.61 4.34 3.45 6.24 4 11l3 1c1.86 2.87 1.86 2.87 3.75 6.44.63 1.17 1.27 2.35 1.92 3.56.22.49.22.49 1.33 3l-1 2h-4c-.51-1.15-1.02-2.3-1.55-3.49-9.89-21.67-23.07-41.35-38.45-59.51-.5-.59-.5-.59-3.02-3.58-8.19-9.65-8.19-9.65-12.34-13.71C548 102 548 102 548 100l-4-2c-1.9-1.81-3.75-3.67-5.56-5.56C532.91 86.83 527.22 81.81 521 77c-.6-.46-.6-.46-3.61-2.8C500.42 61.26 482.66 50.25 464 40c-.97-.54-1.94-1.08-2.94-1.64-6.22-3.45-12.33-6.04-19.06-8.36-1.73-.76-3.46-1.53-5.25-2.31-5-1.78-6.79-2.34-11.75-.69-10.05 5.83-19.35 12.87-28.72 19.72-8.77 6.37-16.79 10.86-27.11 14.13-4.39 1.59-8.4 3.74-12.48 5.98C354 68 354 68 349 68l-1 3c-1.15.16-1.15.16-7 1v2c-8.23 4.68-8.23 4.68-12.3 6.35-4.24 1.89-7.98 4.21-11.89 6.71-3.9 2.49-7.67 4.87-11.81 6.94v2c-2.6 1.88-5.2 3.76-7.81 5.61-5.44 4.07-10.3 8.7-15.19 13.39-1.15 1.1-2.3 2.19-3.48 3.32-7.93 7.73-14.89 15.83-21.52 24.68-1.09 1.38-2.19 2.76-3.31 4.19-2.67 3.78-4.9 7.67-7.05 11.76-1.83 3.4-3.76 6.72-5.7 10.05-10.08 17.71-10.08 17.71-8.94 27 .5.66.5.66 3 4 6.9.76 12.04-.75 18.44-3.25l5-1.94c1.51-.6 3.01-1.19 4.56-1.81.54-.21.54-.21 3.28-1.25 4.22-1.63 7.81-3.41 11.72-5.75l3 1c-31.21 16.17-31.21 16.17-43 16-5-2-5-2-9-5v-3l-1-3c.3-6.69 1.81-11.16 5-17 1.35-2.99 2.68-5.99 4-9-3 3-3 3-5 7l-2 1-2 4-2 1-2 5-4 4-1 3c-1.5 2.7-3.03 5.38-4.56 8.06-17.68 31.67-23.75 60.12-21.94 96.13.32 6.28.56 12.52.5 18.81h2c.16.76.16.76 1 4.62 7.36 33.02 21.25 62.25 38.84 91.03 8.71 14.79 8.71 14.79 7.16 24.35l-2 4h-2v2c-17.24 4.73-34.77-2.96-50-11v-2c4.74 1.48 9.17 3.38 13.69 5.44 9.76 4.29 18.43 7.44 29.31 6.56 5-3 5-3 7-7 1.57-9.43-5.55-18.4-10.24-26.06-6.54-10.92-12.49-22.15-18.07-33.58-1.44-2.86-3.05-5.62-4.69-8.36-18.86-44.44-23.23-93.07-12-140 .16-.7.16-.7.98-4.25 11.11-45.07 33.8-82.94 64.02-117.75 1.03-1.22 2.05-2.44 3.11-3.69 3.34-3.83 7.04-6.99 10.89-10.31 1.09-1.11 2.19-2.23 3.31-3.38 4.65-4.56 9.59-8.58 14.69-12.62 1.42-1.12 2.83-2.25 4.29-3.41 21.5-16.9 21.5-16.9 30.71-20.59v-2c2.66-2.01 5.33-4.01 8-6 3.4-4.53 3.84-6.43 4-12-1.49-6.22-3.13-9.89-8-14-1.01-1.26-2.02-2.52-3.06-3.81C318.02 5.07 310.12 6.35 301 7c-1.09.06-2.17.13-3.29.2-28.17 1.77-57.33 7.48-83.71 17.74-5.06 1.95-10.12 3.8-15.25 5.56-6.55 2.32-12.6 5.28-18.75 8.5-2.14 1.07-4.29 2.13-6.44 3.19-3.65 1.8-7.05 3.7-10.56 5.81l-3-1 7-4v-2c.85-.09 1.69-.18 2.57-.27 3.99-.85 6.82-2.4 10.37-4.42 7.5-4.1 15.05-7.36 23.06-10.31 1.5-.55 3-1.11 4.55-1.68C242.84 11.63 291.49-4.53 329 5m10 19 1 3Zm1 4v5h1v-5zm-4 14 1 3Zm-3 14 1 4Zm239 70 2 2v-2zm-327 29-1 2h2zm-43 62 1 2Zm-2 5 1 2Zm-3 8 1 2Zm-1 3 1 2Zm-1 3 1 2Zm-1 3 1 2Zm-1 3 1 2Zm-1 4 1 3Zm-1 4v7h1v-7zm-1 8c-1.07 5.37-.65 9.59 0 15h1v-15zm-1 16v9h1v-9zm1 10v13h1v-13zm1 14v7h1v-7zm3 21 1 4Zm1 4 1 3Zm1 4 1 4Zm1 5 1 4Zm1 4 1 2Zm1 3 1 2Zm2 6 1 2Zm1 3 1 2Zm4 11 1 2Zm34 65v9h1v-9z"/><path fill="#7cbb9e" d="M453 290c16.09 16.09 22.51 47.7 27 69 .19.87.19.87 1.12 5.3 6.06 30.71 5.54 60.77.94 91.64-.16 1.08-.31 2.16-.48 3.28-.92 5.95-2.33 11.21-4.58 16.78-.66 1.95-1.3 3.9-1.94 5.86-.34 1.03-.67 2.06-1.02 3.13-.7 2.14-1.39 4.29-2.08 6.43-1.62 4.94-3.27 9.09-5.96 13.58l-2 5c-4.96 8.88-10.13 17.69-16 26-.64.92-1.29 1.84-1.95 2.79-16.23 22.22-37.13 37.98-61.05 51.21-1.56.89-3.12 1.77-4.72 2.69-4.95 2.67-9.98 4.44-15.28 6.31-1.53.68-3.05 1.36-4.62 2.06-20.98 9.29-20.98 9.29-30.38 6.94 1.38-.91 2.76-1.82 4.19-2.75 2.53-1.71 5.06-3.45 7.43-5.37 2.38-1.88 2.38-1.88 5.54-3.64 7.05-4.11 13.37-9.28 19.84-14.24.9-.68 1.8-1.37 2.73-2.07 18.76-14.54 35.02-32.04 49.27-50.93.91-1.2 1.81-2.39 2.75-3.62 2.53-3.8 4.69-7.71 6.82-11.73 1.4-2.59 2.91-5.12 4.43-7.65 2.74-5.29 5.38-10.64 8-16 .48-.98.96-1.96 1.46-2.96 2.92-6.18 5.1-12.47 7.13-18.97 1.16-3.35 2.44-6.53 3.84-9.78 4.39-10.4 6.95-21.33 9.57-32.29.44-1.83.88-3.67 1.34-5.56 7.75-39.2 3.31-80.59-8.34-118.44-1.06-3.99-2.04-7.99-3-12"/><path fill="#c8e1dd" d="M525 167c1.65.87 3.3 1.73 5 2.62 7.12 3.83 13.51 8.59 20 13.38l2.67 1.91c1.81 1.31 3.58 2.69 5.33 4.09v2l4 2c4.14 3.51 8.06 7.27 12 11 1.34 1.26 2.68 2.52 4.06 3.81 5.41 5.75 10.17 11.91 14.94 18.19.73.95 1.45 1.91 2.2 2.89 11.69 15.71 21.46 32.97 28.8 51.11.52 1.18 1.04 2.37 1.57 3.59C627 287 627 287 628.44 292c1.42 4.55 2.83 8.11 5.56 12l4 1v2c-3.75-.06-3.75-.06-8-1-3.74-4.7-5.48-10.63-7.56-16.23-2.22-5.8-4.66-11.5-7.08-17.22C614 269 614 269 614 266l-3-3c-1.84-3.23-3.63-6.47-5.38-9.75-3.21-6.03-6.6-11.71-10.62-17.25l-1-3-2.44-2.38C589 228 589 228 587 223c-4-4-4-4-6-5l-1-4c-2.28-2.06-4.62-4.06-7-6-4-4-4-4-6.44-7.12C564 198 564 198 559 196c-.58-.89-1.15-1.77-1.75-2.69-3.46-5.1-8.35-9.34-14.25-11.31l-4-4c-1.8-1.28-3.64-2.51-5.5-3.69-.94-.6-1.88-1.2-2.84-1.82C528 171 528 171 524 170c-.75-.61-1.51-1.22-2.29-1.85-3.21-2.54-6.38-3.93-10.15-5.53-1.42-.6-2.85-1.2-4.31-1.82-.7-.3-.7-.3-4.25-1.8-1.16-.53-2.33-1.06-3.53-1.61-47.38-21.45-105.61-18.19-153.49-.54C305 173 305 173 297 181c-.89.14-1.77.29-2.69.44-3.31.56-3.31.56-7.56 2.68L283 186l-2-1c11.76-6.91 23.82-12.93 36.17-18.68 2.61-1.22 5.2-2.46 7.8-3.7C385.48 134.24 467.09 127.81 525 167m80 81 1 2Zm21 46 1 2Z"/><path fill="#c8dedb" d="M602 468h3l-1 5-3 1q-1.575 4.47-3 9l-2 2-1 3c-1.9 3.01-3.84 5.98-5.81 8.94l-3.21 4.84c-2.71 3.84-5.67 6.91-8.98 10.22l-2 5-4 2-1 4-4 2-2 5c-.83.5-.83.5-5 3l-2 5-3 3h-2l-2 4a138 138 0 0 1-5.38 5.69c-.95.97-1.91 1.94-2.89 2.95C539 556 539 556 535 557c-2.01 2.24-3.65 4.31-5 7l-4 1-1 3-4 1-1 3-4 1v2l-4 1c-2.27 1.39-4.5 2.86-6.69 4.38-.58.39-.58.39-3.51 2.39C499 585 499 585 498 588c-.82.16-.82.16-5 1a224 224 0 0 0-8.38 4.81C448.76 614.82 400.49 638.37 358 637v-1c1.22-.12 2.43-.25 3.69-.38C366 635 366 635 371 633c2.12-.46 4.24-.87 6.38-1.25 15.58-3.04 30.75-7.31 45.81-12.31 1.09-.37 2.19-.73 3.32-1.1 9.9-3.35 19.51-7.18 28.8-11.96 3.31-1.7 6.57-3.33 10-4.76 22.62-9.96 44.09-25.43 62.44-41.81C531 557 531 557 533 557v-2c1.74-1.53 3.49-3.05 5.26-4.56 8.89-7.91 17.28-16.43 24.64-25.78 2.25-2.85 4.61-5.59 6.98-8.35 10.06-12.06 18.36-25.47 26.28-39.01.71-1.19 1.42-2.38 2.15-3.61.64-1.09 1.27-2.18 1.93-3.3.29-.4.29-.4 1.76-2.39"/><path fill="#c7dedc" d="M427 23c7.03.47 12.92 2.75 19.31 5.5 1.96.82 3.91 1.65 5.87 2.47L457 33l3 1 4 3c2.32 1.03 4.65 2.04 7 3 4 2 4 2 6.31 3.88 3.07 2.42 6.26 4.23 9.69 6.12 4.34 2.4 8.16 4.87 12 8l5 3c3.08 2.31 6.12 4.67 9.16 7.04C516 70 516 70 520 71l2 4c2.98 2.22 5.47 3.82 9 5l2 4c3 2 3 2 7 4a103 103 0 0 1 4.69 4.44c.39.39.39.39 2.38 2.37C549 97 549 97 550 100l4 2c3.49 3.09 4.85 4.4 6 9l4 2c3 3 3 3 4 7l4 2c6.68 8.04 6.68 8.04 8 12l4 4c3 4 3 4 4 7 .33.41.33.41 2 2.5 2 2.5 2 2.5 3 5.5 1.32 1.68 2.66 3.34 4 5 2.61 4.34 3.45 6.24 4 11l3 1c1.86 2.87 1.86 2.87 3.75 6.44.63 1.17 1.27 2.35 1.92 3.56.44.99.88 1.98 1.33 3l-1 2h-4c-.51-1.15-1.02-2.3-1.55-3.49-9.89-21.67-23.07-41.35-38.45-59.51-1-1.18-1.99-2.36-3.02-3.58-8.19-9.65-8.19-9.65-12.34-13.71C548 102 548 102 548 100l-4-2c-1.9-1.81-3.75-3.67-5.56-5.56C532.91 86.83 527.22 81.81 521 77c-1.19-.92-2.38-1.85-3.61-2.8C500.42 61.26 482.66 50.25 464 40c-.97-.54-1.94-1.08-2.94-1.64-6.22-3.45-12.33-6.04-19.06-8.36-1.77-.72-3.55-1.44-5.38-2.19C432 26 432 26 427 25zm145 103 2 2v-2z"/><path fill="#d3e3e1" d="m13 402 1 3 3 1c.07 1.22.15 2.45.23 3.71.93 6.36 2.89 11.92 5.15 17.91.39 1.1.79 2.19 1.21 3.32 6.23 16.93 13.91 33.22 23.1 48.75.52.88 1.04 1.76 1.58 2.67 3.66 6.09 7.62 11.86 11.73 17.64.82 1.18 1.64 2.36 2.48 3.58a257 257 0 0 0 15.84 20.31c3.29 3.82 6.46 7.74 9.61 11.67 4.65 5.48 10.03 10.27 15.26 15.19 1.41 1.34 2.83 2.67 4.29 4.05C111 558 111 558 113 559v4c-4-2-4-2-7-7l-4-1c-.5-.66-.5-.66-3-4-2.33-2.01-4.66-4.01-7-6-7.79-7.17-7.79-7.17-9-12l-4-2-2-5-5-3c-2.91-3.15-3.94-4.77-5-9l-3-1c-3-4-3-4-4-7-1.3-1.69-2.64-3.35-4-5-5.86-7.59-5.86-7.59-7-11-.66-.78-1.32-1.57-2-2.38-2-2.62-2-2.62-3-7.62h-2c-2.4-4.6-4.79-9.21-7.19-13.81-.67-1.29-1.34-2.58-2.04-3.91C11 420.33 11 420.33 11 403zm1 9 1 2Zm1 3 1 2Zm3 9 1 3Zm1 4 1 2Zm3 7 1 2Zm1 3 1 2Zm6 14 1 2Zm9 18 1 2Z"/><path fill="#bbd3d1" d="m490.875 151.063 3.16 1.03c4.58 1.56 8.06 2.98 11.96 5.91-5.9 0-8.49-1.12-13.66-3.57-46.56-19.96-105.51-13.68-151.34 4.38-37.06 15.25-37.06 15.25-44 22.19-.88.14-1.77.29-2.68.44-3.32.56-3.32.56-7.56 2.68l-3.76 1.88c-.66-.33-1.31-.66-2-1 11.76-6.91 23.82-12.93 36.18-18.68 2.6-1.22 5.2-2.46 7.79-3.71 52.7-24.71 110.41-29.72 165.91-11.55"/><path fill="#cdd8d9" d="M158 48c.33.16.33.16 2 1-4.97 3.53-9.93 6.99-15.12 10.19C98.18 88.67 64.69 131.43 38 179h-3c.98-4.88 2.45-7.8 5-12h2l1-5c4.49-8.74 4.49-8.74 7-10l2-5c5.94-9.47 5.94-9.47 9-11l1-2c2-4 2-4 6-6 .16-.5.16-.5 1-3 2-4 2-4 5-6l2-4 3-2 2-4 3-1.94c3-2.06 3-2.06 5-7.06.66-.16.66-.16 4-1v-2l5-3c7.55-7.1 7.55-7.1 10-12 3.43-3.21 5.4-4.85 10-6 .16-.5.16-.5 1-3l4-1c.16-.5.16-.5 1-3l4-1c.41-.35.41-.35 2.5-2.12 3.91-3.22 8-5.54 12.38-8.04 4.56-2.69 8.81-5.76 13.12-8.84zM53 147l1 2Z"/><path fill="#accbc6" d="m608 185 4 1 1 6h2c5.37 11.65 9.6 23.46 13.44 35.69.43 1.38.87 2.76 1.32 4.19 5.26 17.07 5.26 17.07 3.24 21.12.94 2.69 1.94 5.36 3 8 1 3 1 3 1 5l2 2c.2 3.43.08 6.55-.5 9.94-.5 3.06-.5 3.06-.44 7.31C638 289 638 289 636 291l-.09-2.67c-.5-10.23-2.24-19.86-4.53-29.83-.36-1.57-.72-3.15-1.09-4.77-4.11-17.75-9.1-34.96-16.29-51.73-4.9-11.51-4.9-11.51-6-17m12 24 1 2Zm1 3 1 2Zm3 8 1 2Zm6 19 1 2Zm1 5 1 3Zm6 25-1 5h2v-5z"/><path fill="#b7d4d1" d="M294.121 4.902c1.51 0 3.02.01 4.58.01l4.74.03c.79 0 .79 0 4.81.01 3.92.01 7.83.03 11.75.05v1c-.44.02-.44.02-2.67.15l-12.27.72c-1.38.08-2.77.16-4.19.24-16.21.98-31.75 3.02-47.56 6.76-1.47.34-2.95.68-4.47 1.03-11.8 2.74-23.54 5.64-34.84 10.04-5.06 1.94-10.12 3.8-15.25 5.56-6.55 2.32-12.6 5.28-18.75 8.5-2.15 1.06-4.29 2.13-6.44 3.19-3.66 1.8-7.05 3.7-10.56 5.81l-3-1 7-4v-2c.85-.09 1.69-.18 2.57-.27 3.99-.85 6.82-2.4 10.37-4.42 7.49-4.1 15.05-7.36 23.06-10.31 1.5-.56 3-1.11 4.55-1.68 23.5-8.45 46.82-14.26 71.45-18.32 1.13-.19 2.26-.38 3.42-.57 3.93-.48 7.74-.54 11.7-.53"/><path fill="#c9d0d1" d="m36 179 1 2c-1.26 2.99-2.61 5.94-4 8.88-4.01 8.63-7.35 17.35-10.39 26.37A342 342 0 0 1 19 226.3c-2.58 7.03-4.19 14.25-5.89 21.53C11.2 255.8 11.2 255.8 9 258l-2-1c1.36-9.21 3.48-18.04 6-27h2v-6c2.76-9.23 6.32-18.11 10-27 .59-1.47 1.19-2.93 1.8-4.44.6-1.44 1.2-2.89 1.82-4.37.55-1.33 1.1-2.66 1.67-4.02C32 181 32 181 36 179m-9 16 1 2Zm-3 7 1 2Zm-1 3 1 2Zm-2 5 1 2Zm-2 5 1 2Zm-1 3 1 2Zm-5 16 1 2Zm-4 16 1 2Z"/><path fill="#c9e0dc" d="m630 395 3 1-2 10h-2c.07.92.15 1.84.22 2.79-.29 5.55-1.98 10.43-3.78 15.65-.18.52-.18.52-1.09 3.19-2.99 8.67-6.45 17.07-10.35 25.37h-2l-1 6h-2c-.14.95-.29 1.9-.44 2.88C608 465 608 465 607 467c-.66.16-.66.16-4 1 1.06-5.3 2.88-9.16 5.25-14 3.19-6.63 6.16-13.23 8.68-20.14.79-2.11 1.66-4.2 2.58-6.26 1.5-3.63 2.53-7.16 3.49-10.98 1.92-7.39 4.16-14.52 7-21.62m-3 14 1 3Zm-3 12 1 2Zm-4 11 1 2Z"/><path fill="#cbd4d4" d="M54 493c4.21 3.7 6.8 7.91 9.72 12.64 6.83 10.08 15.13 19.3 23.36 28.25 1.74 1.91 3.4 3.88 5.04 5.86 14.77 16.2 14.77 16.2 20.88 19.25v4c-4-2-4-2-7-7l-4-1-3-4c-2.33-2.01-4.66-4.01-7-6-7.79-7.17-7.79-7.17-9-12l-4-2-2-5-5-3c-2.91-3.15-3.94-4.77-5-9l-3-1c-3-4-3-4-4-7-1.3-1.69-2.64-3.36-4-5l-3-4z"/><path fill="#e7f1ef" d="M329 5h5c6.17 6.17 8 20.72 8 29-.33.16-.33.16-2 1l-2-1c-.53-2.04-.98-4.11-1.38-6.19C334.51 18.29 330.94 14.67 323 9l-3-3c-3.28-.34-3.28-.34-7.29-.29l-4.35.03c-.75.01-.75.01-4.55.07-1.51.02-3.02.03-4.58.04-3.74.04-7.49.09-11.23.15V5c27.33-3.47 27.33-3.47 41 0m10 19 1 3Zm1 4v5h1v-5z"/><path fill="#ccd9d8" d="M371 148c-3.46 2.31-6.42 3.04-10.44 4.12-48.74 14.06-48.74 14.06-63.56 28.88-.89.14-1.77.29-2.69.44-3.31.56-3.31.56-7.56 2.68L283 186l-2-1c11.75-6.91 23.81-12.93 36.16-18.67 2.64-1.24 5.28-2.49 7.91-3.75 9.09-4.24 18.26-7.92 27.74-11.14 1.01-.35 2.02-.7 3.06-1.05 5.18-1.71 9.66-2.81 15.13-2.39"/><path fill="#d9efe5" d="M450 292c6.23 3.74 6.8 7.25 8.56 13.88.3 1.06.59 2.13.9 3.23 3.91 14.49 7.27 28.82 6.54 43.89h-3c-.65-3.96-1.29-7.92-1.94-11.88-.18-1.1-.36-2.21-.55-3.35-1.06-6.58-1.86-13.13-2.51-19.77-1-4-1-4-3-7-.36-2-.69-4-1-6l-1-1v-3c-1-3-1-3-3-6zm5 14 1 2Zm4 13 1 3Zm1 4 1 4Zm1 7 1 2Zm1 5 1 2Zm1 5 1 4Z"/><path fill="#c8d6d7" d="M424 241c5.43 4.69 8.65 10.64 12.25 16.75.66 1.11 1.32 2.22 2 3.37 14.94 25.36 14.94 25.36 15.75 32.88-5-2-5-2-6.81-5.31C446 285 446 285 446 280h-2c-.63-1.15-1.26-2.3-1.91-3.48-4.65-8.45-9.38-16.8-14.59-24.92-1.5-2.6-1.5-2.6-2.5-6.6h-2zm24 44 1 2Zm1 3v2l2-1z"/><path fill="#cae3e0" d="m608 185 4 1 1 6h2c14 31.73 14 31.73 14 43h-2c-.27-1.42-.54-2.85-.81-4.31C625 226 625 226 622 223c-1.22-3.03-2.36-6.1-3.44-9.19-2.17-6.19-4.62-11.95-7.56-17.81-1.2-3.64-2.07-7.28-3-11m12 24 1 2Zm1 3 1 2Zm3 8 1 2Z"/><path fill="#cdd2d3" d="M8 260h1c-2.07 31.07-2.07 31.07-5 34-.16 2.44-.25 4.88-.32 7.32l-.12 4.5-.12 4.74c-.05 1.57-.09 3.14-.13 4.76-.11 3.89-.21 7.79-.31 11.68l2 1c-.17.16-.17.16-1 1-.24 2.85-.41 5.71-.56 8.56-.09 1.57-.17 3.14-.26 4.76L3 346H2q-.285-13.35-.54-26.7l-.18-9.08c-.1-4.35-.18-8.7-.26-13.05l-.09-4.11c-.02-1.26-.04-2.52-.07-3.82l-.06-3.37C1 283 1 283 3 279v-2l1-4v-1c1-4 1-4 2-6 .68-2 1.35-4 2-6m-6 24v8l2-2c-.38-3.12-.38-3.12-1-6zm-1 62h1v11H1z"/><path fill="#d0d9d9" d="M234 174h3c-1.03 3.25-2.12 6.25-3.62 9.31-1.68 4.5-1.79 7.92-1.38 12.69l3 4c6.9.76 12.04-.75 18.44-3.25l5-1.94c.75-.3.75-.3 4.56-1.81 1.08-.41 2.16-.82 3.28-1.25 4.22-1.63 7.81-3.41 11.72-5.75l3 1c-31.21 16.17-31.21 16.17-43 16-5-2-5-2-9-5v-3l-1-3c.22-7.23 2.21-11.88 6-18"/><path d="M284 638h81v1h-81z"/><path fill="#737d7d" d="M0 293h1v53H0z"/><path fill="#c7e0cd" d="M283 479h42v1h-42z"/><path fill="#6cbaa7" d="M639 275h1v32h-1z"/><path fill="#a7bfbf" d="M411 143h22v1h-22z"/><path fill="#aab2b2" d="M409 193h14v1h-14z"/><path fill="#e8f5f5" d="M433 144h13v1h-13z"/><path fill="#f6f6f6" d="M325 478h12v1h-12z"/><path fill="#efefef" d="M271 478h12v1h-12z"/><path fill="#e9f7f7" d="M399 144h12v1h-12z"/><path d="M308 1h11v1h-11z"/><path fill="#bde5e5" d="M203 617c5.75.75 5.75.75 8 3-5.75-.75-5.75-.75-8-3"/><path fill="#a4abab" d="M427 21h6l2 2-8-1z"/><path fill="#eaf2f2" d="M344 476h8v1h-8z"/><path fill="#e4f1f1" d="M191 431c.82.33.82.33 5 2l-2 2z"/><path fill="#dbebe3" d="M193 306h1v8h-1z"/><path fill="#d4e9e9" d="M446 145h8v1h-8z"/><path fill="#bfc9c9" d="M391 145h8v1h-8z"/><path fill="#c8c8c8" d="m430 620 4 1-6 1z"/><path fill="#f7ffff" d="M337 477h7v1h-7zm-73 0h7v1h-7z"/><path fill="#e1e9e9" d="M352 475h7v1h-7z"/><path fill="#daf5f5" d="M279 4h7v1h-7z"/><path fill="#daffff" d="M288 3h7v1h-7z"/><path fill="#b8e6db" d="M371 636h6v1h-6z"/><path fill="#d4d4d4" d="M271 636h6v1h-6z"/><path fill="#eee" d="M258 476h6v1h-6z"/><path fill="#e3f6ee" d="M252 475h6v1h-6z"/><path fill="#d8eed8" d="M364 473h6v1h-6z"/><path fill="#cdffe9" d="M408 463h6v1h-6z"/><path fill="#fff" d="M237 204h6v1h-6z"/><path fill="#d4e9e9" d="M465 148h6v1h-6z"/><path fill="#d4d4d4" d="M374 148h6v1h-6z"/><path fill="#e2e2e2" d="M454 146h6v1h-6z"/><path fill="#cddbdb" d="M385 146h6v1h-6z"/><path fill="#dbf0e6" d="M272 5h6v1h-6z"/><path fill="#d8d8d8" d="M245 630h5v1h-5z"/><path fill="#d9d9d9" d="M359 474h5v1h-5z"/><path fill="#eaeaea" d="M247 474h5v1h-5z"/><path fill="#c1f4f4" d="M374 471h5v1h-5z"/><path fill="#fff" d="M379 470h5v1h-5z"/><path fill="#b6e5e5" d="M400 465h5v1h-5z"/><path fill="#e1e1e1" d="M243 203h5v1h-5z"/><path fill="#cee" d="M460 147h5v1h-5z"/><path fill="#dee" d="M380 147h5v1h-5z"/><path fill="#949494" d="M252 9h5v1h-5z"/><path fill="#7fe5b2" d="M257 8h5v1h-5z"/><path fill="#fff" d="M322 3h5v1h-5z"/><path fill="#e1f2f2" d="M301 2h5v1h-5z"/><path fill="#c9dfc9" d="m390 632 4 1Z"/><path fill="#bfffff" d="m254 632 4 1Z"/><path fill="#cfdfdf" d="m394 631 4 1Z"/><path fill="#fff" d="m250 631 4 1Z"/><path fill="#aac9c9" d="m398 630 4 1Z"/><path fill="#cfffff" d="m241 629 4 1Z"/><path fill="#bfffff" d="m405 628 4 1Z"/><path fill="#fff" d="m237 628 4 1Z"/><path fill="#d4d4d4" d="m409 627 4 1Zm-176 0 4 1Z"/><path fill="#e9ffff" d="m229 626 4 1Z"/><path fill="#c9ffdf" d="m220 623 4 1Z"/><path fill="#f2fff2" d="m243 473 4 1Z"/><path fill="#afcfcf" d="m370 472 4 1Z"/><path fill="#e5f2f2" d="m384 469 4 1Z"/><path fill="#dfffff" d="m388 468 4 1Z"/><path fill="#efefef" d="m392 467 4 1Z"/><path fill="#d9e9e9" d="m396 466 4 1Z"/><path fill="#b4ffdf" d="m418 463 4 1Z"/><path fill="#fff" d="m414 462 4 1Zm-189-19 4 1Z"/><path fill="#aaa" d="m208 439 4 1Z"/><path fill="#fff" d="m5 375 1 4Zm-2-11 1 4Z"/><path fill="#c3e5e5" d="m584 352 1 4Z"/><path fill="#a9a9a9" d="m457 314 1 4Z"/><path fill="#fff" d="m634 308 4 1Z"/><path fill="#6fdfdf" d="m446 201 4 1Z"/><path fill="#8f9f9f" d="m481 152 4 1Z"/><path fill="#94aaaa" d="m360 152 4 1Z"/><path fill="#dfdfdf" d="m364 151 4 1Z"/><path fill="#cfcfcf" d="m95 94 2 1h-3z"/><path fill="#f2ffff" d="m368 56 4 1Z"/><path fill="#d0dddd" d="m205 23 4 1Z"/><path fill="#d9e9e9" d="m216 19 4 1Z"/><path fill="#d4ffd4" d="m232 14 4 1Z"/><path fill="#bfbfbf" d="m236 13 4 1Z"/><path fill="#c9ffff" d="m243 11 4 1Z"/><path fill="#9aefef" d="m247 10 4 1Z"/><path fill="#afbfaf" d="m267 6 4 1Z"/><path fill="#e9e9e9" d="m368 637 3 1Z"/><path fill="#aff" d="m279 637 3 1Z"/><path fill="#e9ffff" d="m379 635 3 1Z"/><path fill="#d4d4d4" d="m383 634 3 1Z"/><path fill="#e2e2e2" d="m262 634 3 1Z"/><path fill="#d4d4d4" d="m402 629 3 1Z"/><path fill="#b8d4d4" d="m413 626 3 1Z"/><path fill="#c6e2e2" d="m416 625 3 1Z"/><path fill="#fff" d="m226 625 3 1Z"/><path fill="#a9d4d4" d="m419 624 3 1Z"/><path fill="#e9e9e9" d="m422 623 3 1Z"/><path fill="#cdcdcd" d="m425 622 3 1Z"/><path fill="#bfffff" d="m217 622 3 1Z"/><path fill="#fff" d="m214 621 3 1Z"/><path fill="#d4ffff" d="m211 620 3 1Z"/><path fill="#d1eeee" d="m436 618 3 1Z"/><path fill="#fff" d="m441 616 3 1Z"/><path fill="#d4ffff" d="m198 615 3 1Z"/><path fill="#eee" d="m448 613 3 1Zm-257-1 3 1Z"/><path fill="#e2e2e2" d="m163 598 3 1Z"/><path fill="#fff" d="m240 472 3 1Z"/><path fill="#e9e9e9" d="m405 464 3 1Z"/><path fill="#fff" d="m230 442 3 1Z"/><path fill="#7f7f7f" d="m219 442 3 1Z"/><path fill="#aaa" d="m212 440 3 1Zm-13-5 3 1Z"/><path fill="#e2e2e2" d="m196 434 3 1Z"/><path fill="#eee" d="m470 211 3 1Z"/><path fill="#c6ffff" d="m462 207 3 1Z"/><path fill="#c6e2e2" d="m459 206 3 1Z"/><path fill="#e2e2e2" d="m234 203 3 1Zm216-1 3 1Z"/><path fill="#fff" d="m250 201 3 1Z"/><path fill="#7faaaa" d="m443 200 3 1Z"/><path fill="#e9e9e9" d="m255 199 3 1Z"/><path fill="#b8b8b8" d="m438 198 3 1Z"/><path fill="#e9e9e9" d="m258 198 3 1Z"/><path fill="#e2e2e2" d="m435 197 3 1Z"/><path fill="#aaa" d="m431 196 3 1Z"/><path fill="#eee" d="m267 194 3 1Z"/><path fill="#e9e9e9" d="m303 176 3 1Z"/><path fill="#e9ffff" d="m313 171 3 1Z"/><path fill="#e9e9e9" d="m326 165 3 1Z"/><path fill="#d1d1d1" d="m335 161 3 1Z"/><path fill="#e2e2e2" d="m493 156 3 1Z"/><path fill="#949494" d="m485 153 3 1Z"/><path fill="#b8b8b8" d="m357 153 3 1Z"/><path fill="#e9e9e9" d="m477 151 3 1Z"/><path fill="#fff" d="m474 150 3 1Z"/><path fill="#d4d4d4" d="m368 150 3 1Zm103-1 3 1Zm-100 0 3 1ZM66 127c.33.17.33.17 2 1-.33.16-.33.16-2 1z"/><path fill="#8dffe2" d="m346 65 3 1Z"/><path fill="#e2ffff" d="m353 62 3 1Z"/><path fill="#d4d4d4" d="m356 61 3 1Z"/><path fill="#e9ffff" d="m365 57 3 1Z"/><path fill="#d1d1d1" d="m372 55 3 1Z"/><path fill="#fff" d="m377 53 3 1Z"/><path fill="#eee" d="m447 28 3 1Z"/><path fill="#dee" d="m193 28 3 1Z"/><path fill="#9a9" d="m196 27 3 1Z"/><path fill="#d4ffff" d="m438 24 3 1Z"/><path fill="#e9ffff" d="m202 24 3 1Z"/><path fill="#d8eeee" d="m435 23 3 1Z"/><path fill="#bfe9bf" d="m211 21 3 1Z"/><path fill="#cde2e2" d="m220 18 3 1Z"/><path fill="#cde9cd" d="m223 17 3 1Z"/><path fill="#b8cdcd" d="m226 16 3 1Z"/><path fill="#aaa" d="m229 15 3 1Z"/><path fill="#c6c6c6" d="m240 12 3 1Z"/><path fill="#fff" d="m262 7 3 1Z"/><path fill="#dfdfdf" d="m267 635 2 1Z"/><path fill="#bfbfbf" d="m387 633 2 1Z"/><path fill="#fff" d="m258 633 2 1Zm-34-9 2 1Zm210-5 2 1Zm5-2 2 1Z"/><path fill="#d4d4d4" d="m201 616 2 1Z"/><path fill="#7f7f7f" d="m444 615 2 1Z"/><path fill="#fff" d="m446 614 2 1Zm-250 0 2 1Zm-2-1 2 1Z"/><path fill="#e5e5e5" d="m455 610 2 1Z"/><path fill="#fff" d="m457 609 2 1Zm-272 0 2 1Z"/><path fill="#e5ffe5" d="m459 608 2 1Z"/><path fill="#e5ffff" d="m183 608 2 1Z"/><path fill="#fff" d="m461 607 2 1Z"/><path fill="#e5ffe5" d="m181 607 2 1Z"/><path fill="#fff" d="m179 606 2 1Zm-2-1 2 1Z"/><path fill="#94bfbf" d="m467 604 2 1Z"/><path fill="#fff" d="m175 604 2 1Z"/><path fill="#e5e5e5" d="m469 603 2 1Z"/><path fill="#e5ffe5" d="m173 603 2 1Z"/><path fill="#fff" d="m171 602 2 1Z"/><path fill="#bfbfbf" d="m472 601 2 1Z"/><path fill="#5fffff" d="m474 600 2 1Z"/><path fill="#fff" d="m168 600 2 1Zm308-1 2 1Zm-310 0 2 1Z"/><path fill="#dfffff" d="m478 598 2 1Z"/><path fill="#d4ffd4" d="m161 597 2 1Z"/><path fill="#d4ffff" d="m481 596 2 1Z"/><path fill="#fff" d="m159 596 2 1Z"/><path fill="#bfffff" d="m483 595 2 1Z"/><path fill="#bfdfdf" d="m156 594 2 1Z"/><path fill="#d4d4d4" d="m486 593 2 1Z"/><path fill="#bfbfbf" d="m154 593 2 1Z"/><path fill="#9fffff" d="m488 592 2 1Z"/><path fill="#d4d4d4" d="m151 591 2 1Z"/><path fill="#bfffff" d="m491 590 2 1Z"/><path fill="#fff" d="m149 590 2 1Zm344-1 2 1Z"/><path fill="#7f7f7f" d="m146 588 2 1Z"/><path fill="#d4ffff" d="m142 585 2 1Z"/><path fill="#bfffff" d="m500 584 2 1Z"/><path fill="#7fffff" d="m140 584 2 1Z"/><path fill="#7f7f7f" d="m502 583 2 1Z"/><path fill="#dfffff" d="m506 580 2 1Z"/><path fill="#d4d4d4" d="m133 579 2 1Z"/><path fill="#aaa" d="m510 577 2 1Z"/><path fill="#fff" d="m129 576 2 1Z"/><path fill="#d4e9e9" d="m104 556 2 1Z"/><path fill="#fff" d="m238 471 2 1Zm-2-1 2 1Zm-3-2 2 1Z"/><path fill="#e5ffff" d="m231 467 2 1Z"/><path fill="#bfbfbf" d="m422 464 2 1Z"/><path fill="#fff" d="m227 464 2 1Z"/><path fill="#e5ffff" d="m224 462 2 1Z"/><path fill="#fff" d="m220 459 2 1Z"/><path fill="#dfdfdf" d="m214 454 2 1Z"/><path fill="#bfbfbf" d="m233 441 2 1Zm-18 0 2 1Z"/><path fill="#b4b4b4" d="m206 438 2 1Z"/><path fill="#d4d4d4" d="m204 437 2 1Z"/><path fill="#bfffff" d="m202 436 2 1Z"/><path fill="#fff" d="m603 424 2 1Z"/><path fill="#94ffd4" d="m632 307 2 1Z"/><path fill="#d4d4d4" d="m515 242 2 1Z"/><path fill="#bfbfbf" d="m507 235 2 1Z"/><path fill="#d4ffff" d="m503 232 2 1Z"/><path fill="#bfbfbf" d="m499 229 2 1Z"/><path fill="#e5e5e5" d="m495 226 2 1Z"/><path fill="#cce5e5" d="m486 220 2 1Z"/><path fill="#fff" d="m483 218 2 1Zm-3-2 2 1Z"/><path fill="#e5e5e5" d="m478 215 2 1Z"/><path fill="#e5ffe5" d="m476 214 2 1Z"/><path fill="#fff" d="m473 212 2 1Z"/><path fill="#d4ffff" d="m467 209 2 1Zm-2-1 2 1Z"/><path fill="#dfdfdf" d="m457 205 2 1Z"/><path fill="#7f7f7f" d="m455 204 2 1Z"/><path fill="#fff" d="m453 203 2 1Z"/><path fill="#bfbfbf" d="m248 202 2 1Z"/><path fill="#e5e5e5" d="m253 200 2 1Z"/><path fill="#d4d4d4" d="m441 199 2 1Z"/><path fill="#fff" d="m261 197 2 1Z"/><path fill="#dfdfdf" d="m263 196 2 1Z"/><path fill="#7f7f7f" d="m427 195 2 1Z"/><path fill="#e5e5e5" d="m265 195 2 1Z"/><path fill="#dfdfdf" d="m423 194 2 1Z"/><path fill="#fff" d="m407 194 2 1Zm-131-4 2 1Z"/><path fill="#d4ffff" d="m552 189 2 1Z"/><path fill="#fff" d="m279 188 2 1Z"/><path fill="#d4d4d4" d="m284 186 2 1Z"/><path fill="#dfffff" d="m547 185 2 1Z"/><path fill="#fff" d="m286 185 2 1Z"/><path fill="#dfffff" d="m288 184 2 1Z"/><path fill="#559494" d="m291 182 2 1Z"/><path fill="#dfdfdf" d="m541 181 2 1Z"/><path fill="#d4ffff" d="m537 178 2 1Z"/><path fill="#7fff7f" d="m300 178 2 1Z"/><path fill="#aad4aa" d="m534 176 2 1Z"/><path fill="#7fffff" d="m532 175 2 1Z"/><path fill="#fff" d="m306 175 2 1Zm2-1 2 1Z"/><path fill="#bfffff" d="m529 173 2 1Z"/><path fill="#bbb" d="m311 172 2 1Z"/><path fill="#d4d4d4" d="m526 171 2 1Z"/><path fill="#94ffff" d="m316 170 2 1Z"/><path fill="#d4d4d4" d="m318 169 2 1Z"/><path fill="#e5ffff" d="m520 168 2 1Z"/><path fill="#dfdfdf" d="m320 168 2 1Z"/><path fill="#fff" d="m518 167 2 1Z"/><path fill="#dfffff" d="m322 167 2 1Z"/><path fill="#fff" d="m516 166 2 1Z"/><path fill="#dfdfdf" d="m324 166 2 1Z"/><path fill="#d4ffff" d="m514 165 2 1Z"/><path fill="#d4d4d4" d="m512 164 2 1Z"/><path fill="#bfbfbf" d="m329 164 2 1Z"/><path fill="#dfffff" d="m510 163 2 1Z"/><path fill="#d4d4d4" d="m331 163 2 1Z"/><path fill="#fff" d="m508 162 2 1Z"/><path fill="#b4dfdf" d="m333 162 2 1Z"/><path fill="#e5ffff" d="m506 161 2 1Z"/><path fill="#7fffff" d="m503 160 2 1Z"/><path fill="#bfffff" d="m338 160 2 1Zm163-1 2 1Z"/><path fill="#bfbfbf" d="m341 159 2 1Zm2-1 2 1Z"/><path fill="#fff" d="m496 157 2 1Z"/><path fill="#bfbfbf" d="m346 157 2 1Z"/><path fill="#fff" d="m349 156 2 1Z"/><path fill="#d4ffff" d="m491 155 2 1Z"/><path fill="#9f9f9f" d="m351 155 2 1Z"/><path fill="#7fff7f" d="m489 154 2 1Z"/><path fill="#dfdfdf" d="m355 154 2 1Z"/><path fill="#e5e5e5" d="m90 99 2 1Z"/><path fill="#e5ffff" d="m522 74 2 1Z"/><path fill="#b4d4ff" d="m343 67 2 1Z"/><path fill="#d4d4d4" d="m512 66 2 1Z"/><path fill="#bfbfbf" d="m128 66 2 1Z"/><path fill="#fff" d="m349 64 2 1Zm2-1 2 1Z"/><path fill="#e9ffff" d="m505 61 2 1Z"/><path fill="#fff" d="m359 60 2 1Z"/><path fill="#bfbfbf" d="m136 60 2 1Z"/><path fill="#e5ffff" d="m361 59 2 1Z"/><path fill="#fff" d="m363 58 2 1Z"/><path fill="#d4ffff" d="m499 57 2 1Z"/><path fill="#dfffff" d="m140 57 2 1Z"/><path fill="#fff" d="m142 56 2 1Z"/><path fill="#bfffff" d="m496 55 2 1Z"/><path fill="#d4d4d4" d="m144 55 2 1Z"/><path fill="#e5e5e5" d="m375 54 2 1Z"/><path fill="#fff" d="m492 52 2 1Zm-112 0 2 1Zm-232 0 2 1Z"/><path fill="#7faaaa" d="m490 51 2 1Z"/><path fill="#fff" d="m382 51 2 1Z"/><path fill="#d4d4d4" d="m150 51 2 1Z"/><path fill="#dfdfdf" d="m384 50 2 1Z"/><path fill="#d4d4d4" d="m487 49 2 1Z"/><path fill="#dfdfdf" d="m386 49 2 1Z"/><path fill="#94bfbf" d="m153 49 2 1Z"/><path fill="#fff" d="m484 47 2 1Zm-328 0 2 1Z"/><path fill="#dfdfdf" d="m482 46 2 1Zm-324 0 2 1Z"/><path fill="#7f9f9f" d="m480 45 2 1Z"/><path fill="#fff" d="m391 45 2 1Z"/><path fill="#aad4d4" d="m160 45 2 1Z"/><path fill="#dfdfdf" d="m162 44 2 1Z"/><path fill="#fff" d="m477 43 2 1Zm-83 0 2 1Z"/><path fill="#bfbfbf" d="m475 42 2 1Z"/><path fill="#d4ffff" d="m165 42 2 1Z"/><path fill="#fff" d="m397 41 2 1Z"/><path fill="#bfbfbf" d="m171 39 2 1Z"/><path fill="#fff" d="m468 38 2 1Z"/><path fill="#dfffff" d="m401 38 2 1Z"/><path fill="#fff" d="m466 37 2 1Zm-292 0 2 1Zm290-1 2 1Zm-288 0 2 1Z"/><path fill="#7f7f7f" d="m462 35 2 1Z"/><path fill="#7fffff" d="m178 35 2 1Z"/><path fill="#fff" d="m460 34 2 1Zm-280 0 2 1Z"/><path fill="#e5e5e5" d="m408 33 2 1Zm-226 0 2 1Z"/><path fill="#fff" d="m184 32 2 1Z"/><path fill="#dfdfdf" d="m454 31 2 1Z"/><path fill="#fff" d="m452 30 2 1Zm-264 0 2 1Zm262-1 2 1Z"/><path fill="#dfffff" d="m191 29 2 1Z"/><path fill="#7f7f7f" d="m444 27 2 1Z"/><path fill="#7fffff" d="m442 26 2 1Z"/><path fill="#fff" d="m418 26 2 1Zm-219 0 2 1Z"/><path fill="#e5e5e5" d="m425 22 2 1Z"/><path fill="#fff" d="m209 22 2 1Zm5-2 2 1Z"/></svg>